<svg width="416" height="306" viewBox="0 0 416 306" fill="none" xmlns="http://www.w3.org/2000/svg">
<ellipse cx="208" cy="153" rx="162" ry="153" fill="white"/>
<g clip-path="url(#clip0)">
<path d="M203.618 198.128C209.836 204.803 210.157 214.614 210.157 214.614C210.157 214.614 200.398 213.602 194.18 206.927C187.963 200.252 187.641 190.441 187.641 190.441C187.641 190.441 197.401 191.453 203.618 198.128Z" fill="#6C63FF"/>
<path d="M223.192 208.547C216.52 214.767 206.714 215.089 206.714 215.089C206.714 215.089 207.725 205.325 214.397 199.104C221.069 192.884 230.875 192.563 230.875 192.563C230.875 192.563 229.864 202.326 223.192 208.547Z" fill="#6C63FF"/>
<path d="M221.534 228.358H196.994C196.523 228.358 196.062 228.225 195.663 227.976C195.264 227.726 194.943 227.369 194.737 226.945L189.394 215.958C189.208 215.575 189.122 215.151 189.145 214.726C189.167 214.301 189.298 213.888 189.523 213.527C189.749 213.166 190.063 212.869 190.435 212.663C190.807 212.456 191.226 212.348 191.651 212.348H226.877C227.302 212.348 227.721 212.456 228.093 212.663C228.465 212.869 228.779 213.166 229.005 213.527C229.23 213.888 229.361 214.301 229.383 214.726C229.406 215.151 229.32 215.575 229.134 215.958L223.791 226.945C223.585 227.369 223.264 227.726 222.865 227.976C222.466 228.225 222.005 228.358 221.534 228.358V228.358Z" fill="#3F3D56"/>
<path d="M331.741 94.3573C343.026 94.3573 352.174 85.2051 352.174 73.9152C352.174 62.6253 343.026 53.4731 331.741 53.4731C320.456 53.4731 311.308 62.6253 311.308 73.9152C311.308 85.2051 320.456 94.3573 331.741 94.3573Z" fill="#FFB8B8"/>
<path d="M316.49 84.1362C316.49 84.1362 320.34 113.17 314.417 116.429C308.495 119.688 349.657 119.984 349.657 119.984C349.657 119.984 340.477 94.8017 344.623 87.0988L316.49 84.1362Z" fill="#FFB8B8"/>
<path d="M379.713 120.131L376.29 135.726L369.052 168.72L368.835 170.527L366.337 191.446L364.675 205.342L363.561 214.677C356.787 218.161 351.877 220.565 351.877 220.565C351.877 220.565 351.455 218.447 350.774 215.736C346.02 217.163 337.223 219.528 329.768 220.001C332.482 223.028 333.73 225.872 332.038 227.971C326.931 234.298 305.846 221.043 298.472 216.101C298.3 217.284 298.235 218.48 298.277 219.676L292.634 215.333L293.193 205.342L294.134 188.438L295.318 167.239C294.945 166.331 294.632 165.4 294.382 164.45C292.654 158.301 290.556 146.023 288.947 135.726C287.652 127.439 286.679 120.437 286.474 118.947C286.446 118.752 286.432 118.652 286.432 118.652L317.672 104.842C319.892 109.993 330.259 111.541 330.259 111.541C338.848 110.949 345.581 106.418 345.581 106.418L379.713 120.131Z" fill="#D0CDE1"/>
<path d="M354.247 214.641C354.247 214.641 352.925 215.094 350.774 215.736C346.02 217.163 337.223 219.528 329.768 220.001C323.349 220.412 317.925 219.423 316.933 215.233C316.508 213.432 317.111 211.95 318.425 210.733C322.349 207.094 332.596 205.79 340.724 205.342C343.019 205.217 345.142 205.159 346.909 205.137C349.91 205.098 351.877 205.159 351.877 205.159L351.924 205.342L354.247 214.641Z" fill="#FFB8B8"/>
<path d="M314.743 54.5788L310.922 53.0486C310.922 53.0486 318.91 44.2501 330.024 45.0152L326.898 41.5723C326.898 41.5723 334.539 38.5119 341.486 46.5453C345.137 50.7683 349.362 55.7322 351.996 61.324H356.087L354.38 65.0857L360.356 68.8474L354.222 68.1717C354.587 70.2316 354.643 72.3346 354.388 74.4111C354.125 76.4883 353.066 78.3819 351.433 79.6923V79.6923C351.433 79.6923 346.695 69.8806 346.695 68.3504V72.1758C346.695 72.1758 342.875 68.7329 342.875 66.4377L340.791 69.1155L339.749 64.9075L326.899 69.1155L328.982 65.6726L320.994 66.8203L324.12 62.6122C324.12 62.6122 315.09 67.5853 314.743 71.7933C314.395 76.0013 311.752 79.9886 311.752 79.9886C311.752 79.9886 304.67 60.3169 314.743 54.5788Z" fill="#2F2E41"/>
<path d="M401.923 191.827C399.842 194.084 394.685 197.484 388.433 201.164C386.107 202.532 383.631 203.941 381.106 205.342C375.079 208.687 368.768 212 363.561 214.677C356.787 218.16 351.877 220.565 351.877 220.565C351.877 220.565 351.455 218.447 350.774 215.736C349.863 212.109 348.49 207.419 347.059 205.342C347.009 205.27 346.959 205.203 346.909 205.137C346.492 204.589 346.073 204.269 345.659 204.269L366.337 191.446L375.273 185.903L368.835 170.527L360.76 151.241L365.634 135.726L370.533 120.131H379.713C379.713 120.131 382.753 126.769 386.641 136.026C387.221 137.411 387.822 138.853 388.433 140.343C396.43 159.803 406.399 186.976 401.923 191.827Z" fill="#D0CDE1"/>
<path d="M332.038 227.971C326.931 234.298 305.846 221.043 298.472 216.101C296.866 215.025 295.91 214.344 295.91 214.344L302.657 205.342L304.793 202.493C304.793 202.493 306.705 203.508 309.531 205.159C309.634 205.22 309.736 205.281 309.842 205.342C312.279 206.774 315.338 208.645 318.425 210.733C322.685 213.615 326.992 216.904 329.768 220.001C332.482 223.028 333.73 225.872 332.038 227.971Z" fill="#FFB8B8"/>
<path d="M309.531 205.159C308.777 205.156 308.024 205.218 307.28 205.342C300.892 206.441 299.008 212.225 298.472 216.101C298.3 217.284 298.235 218.48 298.278 219.676L292.634 215.333L290.578 213.752C285.629 212.025 281.22 208.959 277.396 205.343C274.079 202.15 271.104 198.619 268.518 194.81C265.943 191.054 263.647 187.115 261.65 183.023C261.092 181.881 260.793 180.63 260.772 179.36C260.751 178.089 261.01 176.83 261.53 175.67L268.518 160.089L278.733 137.316C278.808 136.774 278.89 136.244 278.98 135.726C281.006 124.106 286.432 118.947 286.432 118.947H290.578L293.351 135.726L296.797 156.572L294.382 164.451L288.802 182.645L294.135 188.438L309.531 205.159Z" fill="#D0CDE1"/>
<path d="M314.223 156.589L317.767 160.726C319.084 160.474 320.459 160.179 321.875 159.848L320.857 156.589L323.346 159.494C338.35 155.802 356.947 148.624 356.947 148.624C356.947 148.624 336.87 150.097 321.879 146.821C315.246 145.371 308.422 148.66 305.7 154.883C304.118 158.5 304.366 161.633 309.977 161.633C311.873 161.601 313.764 161.423 315.632 161.101L314.223 156.589Z" fill="#6C63FF"/>
<path d="M395.018 224.579V226.267C395.019 226.73 394.933 227.189 394.765 227.62C394.691 227.813 394.6 227.999 394.496 228.176C394.165 228.732 393.695 229.193 393.132 229.513C392.569 229.832 391.933 230 391.286 230H267.207C266.56 230 265.924 229.832 265.361 229.513C264.799 229.193 264.329 228.732 263.998 228.176C263.893 227.999 263.803 227.813 263.728 227.62C263.56 227.189 263.474 226.73 263.475 226.267V224.579C263.475 224.089 263.572 223.603 263.759 223.15C263.947 222.697 264.221 222.286 264.568 221.939C264.914 221.592 265.326 221.317 265.779 221.13C266.232 220.942 266.717 220.846 267.207 220.846H274.359V220.059C274.359 220.039 274.363 220.018 274.371 220C274.379 219.981 274.39 219.963 274.405 219.949C274.419 219.935 274.436 219.923 274.455 219.915C274.474 219.907 274.494 219.903 274.515 219.904H278.246C278.267 219.903 278.287 219.907 278.306 219.915C278.325 219.923 278.342 219.935 278.357 219.949C278.371 219.963 278.382 219.981 278.39 220C278.398 220.018 278.402 220.039 278.402 220.059V220.846H280.733V220.059C280.733 220.039 280.737 220.018 280.745 220C280.753 219.981 280.764 219.963 280.779 219.949C280.793 219.935 280.81 219.923 280.829 219.915C280.848 219.907 280.868 219.903 280.889 219.904H284.621C284.641 219.903 284.661 219.907 284.68 219.915C284.699 219.923 284.716 219.935 284.731 219.949C284.745 219.963 284.757 219.981 284.764 220C284.772 220.018 284.776 220.039 284.776 220.059V220.846H287.11V220.059C287.11 220.039 287.114 220.018 287.122 220C287.13 219.981 287.141 219.963 287.156 219.949C287.17 219.935 287.187 219.923 287.206 219.915C287.225 219.907 287.245 219.903 287.266 219.904H290.997C291.018 219.903 291.038 219.907 291.057 219.915C291.076 219.923 291.093 219.935 291.108 219.949C291.122 219.963 291.134 219.981 291.141 220C291.149 220.018 291.153 220.039 291.153 220.059V220.846H293.484V220.059C293.484 220.039 293.488 220.018 293.496 220C293.504 219.981 293.515 219.963 293.53 219.949C293.544 219.935 293.561 219.923 293.58 219.915C293.599 219.907 293.62 219.903 293.64 219.904H297.372C297.392 219.903 297.412 219.907 297.431 219.915C297.45 219.923 297.467 219.935 297.482 219.949C297.496 219.963 297.508 219.981 297.515 220C297.523 220.018 297.527 220.039 297.527 220.059V220.846H299.859V220.059C299.859 220.039 299.863 220.018 299.87 220C299.878 219.981 299.89 219.963 299.904 219.949C299.919 219.935 299.936 219.923 299.955 219.915C299.973 219.907 299.994 219.903 300.014 219.904H303.746C303.766 219.903 303.787 219.907 303.805 219.915C303.824 219.923 303.842 219.935 303.856 219.949C303.87 219.963 303.882 219.981 303.89 220C303.898 220.018 303.902 220.039 303.901 220.059V220.846H306.236V220.059C306.235 220.039 306.239 220.018 306.247 220C306.255 219.981 306.267 219.963 306.281 219.949C306.295 219.935 306.313 219.923 306.332 219.915C306.35 219.907 306.371 219.903 306.391 219.904H310.123C310.143 219.903 310.163 219.907 310.182 219.915C310.201 219.923 310.218 219.935 310.233 219.949C310.247 219.963 310.259 219.981 310.267 220C310.274 220.018 310.278 220.039 310.278 220.059V220.846H312.61V220.059C312.61 220.039 312.614 220.018 312.621 220C312.629 219.981 312.641 219.963 312.655 219.949C312.67 219.935 312.687 219.923 312.706 219.915C312.725 219.907 312.745 219.903 312.765 219.904H341.996C342.017 219.903 342.037 219.907 342.056 219.915C342.075 219.923 342.092 219.935 342.107 219.949C342.121 219.963 342.132 219.981 342.14 220C342.148 220.018 342.152 220.039 342.152 220.059V220.846H344.486V220.059C344.486 220.039 344.49 220.018 344.498 220C344.506 219.981 344.517 219.963 344.532 219.949C344.546 219.935 344.563 219.923 344.582 219.915C344.601 219.907 344.621 219.903 344.642 219.904H348.373C348.415 219.904 348.454 219.92 348.483 219.95C348.512 219.979 348.529 220.018 348.529 220.059V220.846H350.86V220.059C350.86 220.039 350.864 220.018 350.872 220C350.88 219.981 350.891 219.963 350.906 219.949C350.92 219.935 350.937 219.923 350.956 219.915C350.975 219.907 350.995 219.903 351.016 219.904H354.748C354.768 219.903 354.788 219.907 354.807 219.915C354.826 219.923 354.843 219.935 354.858 219.949C354.872 219.963 354.884 219.981 354.891 220C354.899 220.018 354.903 220.039 354.903 220.059V220.846H357.234V220.059C357.234 220.039 357.238 220.018 357.246 220C357.254 219.981 357.265 219.963 357.28 219.949C357.294 219.935 357.312 219.923 357.33 219.915C357.349 219.907 357.37 219.903 357.39 219.904H361.122C361.142 219.903 361.162 219.907 361.181 219.915C361.2 219.923 361.217 219.935 361.232 219.949C361.246 219.963 361.258 219.981 361.266 220C361.273 220.018 361.277 220.039 361.277 220.059V220.846H363.611V220.059C363.611 220.039 363.615 220.018 363.623 220C363.631 219.981 363.642 219.963 363.657 219.949C363.671 219.935 363.688 219.923 363.707 219.915C363.726 219.907 363.746 219.903 363.767 219.904H367.499C367.539 219.904 367.578 219.921 367.607 219.95C367.636 219.979 367.652 220.018 367.651 220.059V220.846H369.986V220.059C369.985 220.039 369.989 220.018 369.997 220C370.005 219.981 370.017 219.963 370.031 219.949C370.045 219.935 370.063 219.923 370.082 219.915C370.1 219.907 370.121 219.903 370.141 219.904H373.873C373.893 219.903 373.913 219.907 373.932 219.915C373.951 219.923 373.968 219.935 373.983 219.949C373.997 219.963 374.009 219.981 374.017 220C374.024 220.018 374.028 220.039 374.028 220.059V220.846H376.36V220.059C376.36 220.039 376.364 220.018 376.371 220C376.379 219.981 376.391 219.963 376.405 219.949C376.42 219.935 376.437 219.923 376.456 219.915C376.475 219.907 376.495 219.903 376.515 219.904H380.247C380.267 219.903 380.288 219.907 380.307 219.915C380.325 219.923 380.343 219.935 380.357 219.949C380.372 219.963 380.383 219.981 380.391 220C380.399 220.018 380.403 220.039 380.403 220.059V220.846H391.286C391.777 220.846 392.262 220.942 392.715 221.13C393.167 221.317 393.579 221.592 393.925 221.939C394.272 222.286 394.547 222.697 394.734 223.15C394.922 223.603 395.018 224.089 395.018 224.579V224.579Z" fill="#3F3D56"/>
<path d="M385.027 153.517H338.779V152.564H317.808V153.517H271.369C270.959 153.517 270.552 153.598 270.172 153.756C269.793 153.913 269.448 154.143 269.157 154.434C268.867 154.725 268.636 155.07 268.479 155.449C268.322 155.829 268.241 156.236 268.241 156.647V220.004C268.241 220.834 268.571 221.63 269.157 222.217C269.744 222.804 270.54 223.134 271.369 223.134H385.027C385.857 223.134 386.653 222.804 387.239 222.217C387.826 221.63 388.156 220.834 388.156 220.004V156.647C388.156 156.236 388.075 155.829 387.917 155.449C387.76 155.07 387.53 154.725 387.239 154.434C386.949 154.143 386.604 153.913 386.224 153.756C385.845 153.598 385.438 153.517 385.027 153.517V153.517Z" fill="#3F3D56"/>
<path d="M328.289 182.586C332.126 182.586 335.236 179.475 335.236 175.637C335.236 171.798 332.126 168.687 328.289 168.687C324.453 168.687 321.343 171.798 321.343 175.637C321.343 179.475 324.453 182.586 328.289 182.586Z" stroke="#D0CDE1" stroke-width="2" stroke-miterlimit="10"/>
<path d="M326.067 185.088C329.903 185.088 333.013 181.977 333.013 178.139C333.013 174.3 329.903 171.189 326.067 171.189C322.23 171.189 319.12 174.3 319.12 178.139C319.12 181.977 322.23 185.088 326.067 185.088Z" fill="#D0CDE1"/>
<path d="M122.1 122.818C127.685 122.818 132.213 118.288 132.213 112.7C132.213 107.112 127.685 102.582 122.1 102.582C116.515 102.582 111.987 107.112 111.987 112.7C111.987 118.288 116.515 122.818 122.1 122.818Z" fill="#2F2E41"/>
<path d="M124.918 102.861C126.668 102.861 128.388 103.316 129.91 104.18C131.432 105.045 132.704 106.29 133.601 107.793C134.498 109.297 134.99 111.007 135.028 112.758C135.067 114.508 134.651 116.239 133.82 117.78C134.697 116.683 135.336 115.415 135.695 114.057C136.055 112.698 136.128 111.28 135.91 109.892C135.692 108.505 135.187 107.177 134.427 105.996C133.668 104.814 132.671 103.803 131.5 103.028C130.328 102.253 129.009 101.731 127.624 101.494C126.24 101.258 124.822 101.312 123.46 101.654C122.098 101.997 120.822 102.619 119.713 103.482C118.605 104.345 117.689 105.429 117.022 106.666C117.968 105.478 119.168 104.52 120.535 103.861C121.902 103.202 123.4 102.86 124.918 102.861V102.861Z" fill="#2F2E41"/>
<path d="M103.203 112.679C119.609 112.679 132.91 99.3724 132.91 82.9583C132.91 66.5442 119.609 53.2379 103.203 53.2379C86.7959 53.2379 73.4956 66.5442 73.4956 82.9583C73.4956 99.3724 86.7959 112.679 103.203 112.679Z" fill="#2F2E41"/>
<path d="M79.8875 64.5182C85.0062 58.7589 92.1614 55.2145 99.8428 54.633C107.524 54.0516 115.131 56.4787 121.058 61.4019C120.815 61.1709 120.574 60.938 120.322 60.7135C114.433 55.4765 106.707 52.7941 98.8416 53.2566C90.9764 53.719 83.6169 57.2884 78.3822 63.1794C73.1476 69.0705 70.4664 76.8007 70.9287 84.6694C71.3909 92.5382 74.9587 99.901 80.847 105.138C81.0995 105.362 81.3588 105.574 81.6166 105.788C76.0352 100.477 72.7349 93.2031 72.4123 85.503C72.0897 77.8029 74.77 70.2786 79.8875 64.5182V64.5182Z" fill="#2F2E41"/>
<path d="M102.951 112.427C113.518 112.427 122.084 103.857 122.084 93.2848C122.084 82.713 113.518 74.1429 102.951 74.1429C92.3838 74.1429 83.8176 82.713 83.8176 93.2848C83.8176 103.857 92.3838 112.427 102.951 112.427Z" fill="#A0616A"/>
<path d="M89.3561 99.3297C89.3561 99.3297 91.8737 122.501 87.8456 125.02C83.8175 127.539 111.007 131.065 111.007 131.065C111.007 131.065 106.979 105.878 117.049 99.3297L89.3561 99.3297Z" fill="#A0616A"/>
<path d="M113.525 120.99C113.525 120.99 121.022 117.488 110.224 118.735C99.4263 119.983 90.1102 115.197 90.1102 115.197C90.1102 115.197 86.8386 111.923 86.3351 115.449C85.8316 118.975 87.8456 125.524 76.7684 126.531C65.6913 127.539 55.6211 124.516 51.593 132.072C47.565 139.628 49.579 172.371 49.579 172.371C49.579 172.371 57.1316 199.573 63.1737 203.603C69.2158 207.633 122.084 202.092 122.084 202.092L137.189 174.89V143.155C137.189 143.155 135.175 132.072 121.077 135.095C121.077 135.095 112.014 133.08 112.517 128.546C113.021 124.013 113.525 120.99 113.525 120.99Z" fill="#D0CDE1"/>
<path d="M65.1719 222.853C65.4831 221.496 65.6915 220.729 65.6915 220.729L65.5304 219.626L63.8715 208.356L63.1741 203.602C69.2148 201.084 70.7264 189.497 70.7264 189.497L70.9542 189.361L71.9851 188.744V188.741L75.6862 186.52L75.7613 186.475L77.2562 187.471L80.2932 189.497C84.2747 192.47 88.8324 194.578 93.6747 195.688C98.5171 196.798 103.538 196.885 108.416 195.944C110.686 195.555 112.906 194.913 115.034 194.031L122.359 191.588L122.587 191.513L122.812 191.546L127.107 192.196L127.185 192.21L127.541 192.263L126.546 199.143L125.104 209.143C128.914 211.161 132.301 214.953 135.263 219.625C135.918 220.66 136.554 221.735 137.169 222.853C137.969 224.298 138.733 225.802 139.461 227.342C139.55 227.526 139.636 227.712 139.722 227.898C140.003 228.502 140.281 229.11 140.55 229.722H63.8382C63.9382 229.108 64.0382 228.521 64.1355 227.957C64.1405 227.938 64.1442 227.918 64.1466 227.898C64.1827 227.709 64.2161 227.526 64.2466 227.342C64.5856 225.508 64.9135 223.976 65.1719 222.853Z" fill="#2F2E41"/>
<path d="M62.1667 126.028C62.1667 126.028 67.7053 136.102 65.6912 148.696C63.6772 161.289 71.7333 192.521 71.7333 192.521L77.7754 191.009C77.7754 191.009 73.7474 164.815 74.7544 158.77C75.7614 152.726 75.7614 129.05 70.7263 126.028C65.6912 123.005 62.1667 126.028 62.1667 126.028Z" fill="#2F2E41"/>
<path d="M120.723 136.497L122.839 192.269L126.867 194.787C126.867 194.787 132.658 133.584 129.637 133.584H123.49C123.114 133.584 122.742 133.66 122.397 133.808C122.052 133.957 121.74 134.174 121.481 134.446C121.222 134.719 121.022 135.041 120.891 135.394C120.761 135.746 120.704 136.122 120.723 136.497V136.497Z" fill="#2F2E41"/>
<path d="M74.5026 191.261C75.893 191.261 77.0202 190.134 77.0202 188.743C77.0202 187.352 75.893 186.224 74.5026 186.224C73.1122 186.224 71.9851 187.352 71.9851 188.743C71.9851 190.134 73.1122 191.261 74.5026 191.261Z" fill="#6C63FF"/>
<path d="M124.853 193.78C126.244 193.78 127.371 192.652 127.371 191.261C127.371 189.87 126.244 188.743 124.853 188.743C123.463 188.743 122.336 189.87 122.336 191.261C122.336 192.652 123.463 193.78 124.853 193.78Z" fill="#6C63FF"/>
<path d="M86.5869 69.3572V88.4993H91.0179L96.6569 82.4545L95.9017 88.4993H115.488L114.28 82.4545L116.697 88.4993H119.818V69.3572H86.5869Z" fill="#2F2E41"/>
<path d="M83.5658 92.0255C84.4001 92.0255 85.0763 90.7851 85.0763 89.2549C85.0763 87.7248 84.4001 86.4844 83.5658 86.4844C82.7316 86.4844 82.0553 87.7248 82.0553 89.2549C82.0553 90.7851 82.7316 92.0255 83.5658 92.0255Z" fill="#A0616A"/>
<path d="M122.336 92.0255C123.17 92.0255 123.846 90.7851 123.846 89.2549C123.846 87.7248 123.17 86.4844 122.336 86.4844C121.502 86.4844 120.825 87.7248 120.825 89.2549C120.825 90.7851 121.502 92.0255 122.336 92.0255Z" fill="#A0616A"/>
<path d="M132.658 191.009C132.658 191.009 109.748 186.728 108.238 194.284C106.727 201.84 133.665 198.565 133.665 198.565L132.658 191.009Z" fill="#A0616A"/>
<path d="M132.154 139.125C132.154 139.125 187.037 182.95 176.967 193.528C166.896 204.107 128.63 201.084 128.63 201.084L131.147 188.491L153.302 185.972L142.224 174.89L132.154 175.897V139.125Z" fill="#D0CDE1"/>
<path d="M51.0895 212.166L58.1386 217.707C58.1386 217.707 63.1737 233.323 70.7264 228.79C78.279 224.256 63.6772 208.136 63.6772 208.136L55.1176 205.114L51.0895 212.166Z" fill="#A0616A"/>
<path d="M58.1386 131.065L51.1085 133.182C51.1085 133.182 2.24927 169.349 0.235239 179.424C-1.77879 189.498 9.80189 195.039 9.80189 195.039L53.6071 215.692L58.1386 203.603L37.4948 193.024C37.4948 193.024 39.0053 190.002 32.9633 189.498C26.9212 188.995 25.9141 182.446 25.9141 182.446C25.9141 182.446 37.9983 163.808 44.5439 167.838C51.0895 171.868 53.1036 174.89 53.1036 174.89L58.1386 131.065Z" fill="#D0CDE1"/>
<path d="M158.409 224.579V226.267C158.41 226.73 158.324 227.189 158.156 227.62C158.081 227.813 157.991 227.999 157.886 228.176C157.555 228.732 157.085 229.193 156.523 229.513C155.96 229.832 155.324 230 154.677 230H30.5975C29.9505 230 29.3145 229.832 28.7519 229.513C28.1892 229.193 27.7193 228.732 27.3882 228.176C27.2834 227.999 27.1933 227.813 27.1186 227.62C26.9506 227.189 26.8649 226.73 26.8658 226.267V224.579C26.8657 224.089 26.9621 223.603 27.1496 223.15C27.3371 222.697 27.6119 222.286 27.9585 221.939C28.305 221.592 28.7165 221.317 29.1693 221.13C29.6221 220.942 30.1074 220.846 30.5975 220.846H37.7497V220.059C37.7496 220.039 37.7536 220.018 37.7614 220C37.7692 219.981 37.7807 219.963 37.7952 219.949C37.8096 219.935 37.8268 219.923 37.8457 219.915C37.8646 219.907 37.8848 219.903 37.9053 219.904H41.637C41.6574 219.903 41.6776 219.907 41.6965 219.915C41.7154 219.923 41.7326 219.935 41.7471 219.949C41.7615 219.963 41.773 219.981 41.7808 220C41.7886 220.018 41.7926 220.039 41.7926 220.059V220.846H44.1238V220.059C44.1238 220.039 44.1278 220.018 44.1356 220C44.1434 219.981 44.1549 219.963 44.1693 219.949C44.1838 219.935 44.2009 219.923 44.2198 219.915C44.2387 219.907 44.259 219.903 44.2794 219.904H48.0111C48.0316 219.903 48.0518 219.907 48.0707 219.915C48.0896 219.923 48.1068 219.935 48.1212 219.949C48.1357 219.963 48.1471 219.981 48.1549 220C48.1627 220.018 48.1668 220.039 48.1667 220.059V220.846H50.5008V220.059C50.5008 220.039 50.5048 220.018 50.5126 220C50.5204 219.981 50.5318 219.963 50.5463 219.949C50.5607 219.935 50.5779 219.923 50.5968 219.915C50.6157 219.907 50.6359 219.903 50.6564 219.904H54.3881C54.4085 219.903 54.4288 219.907 54.4477 219.915C54.4666 219.923 54.4837 219.935 54.4982 219.949C54.5126 219.963 54.5241 219.981 54.5319 220C54.5397 220.018 54.5437 220.039 54.5437 220.059V220.846H56.875V220.059C56.8749 220.039 56.8789 220.018 56.8867 220C56.8945 219.981 56.906 219.963 56.9205 219.949C56.9349 219.935 56.9521 219.923 56.971 219.915C56.9899 219.907 57.0101 219.903 57.0306 219.904H60.7622C60.7827 219.903 60.8029 219.907 60.8218 219.915C60.8407 219.923 60.8579 219.935 60.8724 219.949C60.8868 219.963 60.8983 219.981 60.9061 220C60.9139 220.018 60.9179 220.039 60.9178 220.059V220.846H63.2491V220.059C63.2491 220.039 63.2531 220.018 63.2609 220C63.2687 219.981 63.2802 219.963 63.2946 219.949C63.3091 219.935 63.3262 219.923 63.3451 219.915C63.364 219.907 63.3843 219.903 63.4047 219.904H67.1364C67.1569 219.903 67.1771 219.907 67.196 219.915C67.2149 219.923 67.2321 219.935 67.2465 219.949C67.261 219.963 67.2724 219.981 67.2802 220C67.288 220.018 67.292 220.039 67.292 220.059V220.846H69.626V220.059C69.626 220.039 69.63 220.018 69.6378 220C69.6456 219.981 69.6571 219.963 69.6715 219.949C69.686 219.935 69.7031 219.923 69.722 219.915C69.7409 219.907 69.7612 219.903 69.7816 219.904H73.5134C73.5338 219.903 73.554 219.907 73.5729 219.915C73.5918 219.923 73.609 219.935 73.6235 219.949C73.6379 219.963 73.6494 219.981 73.6572 220C73.665 220.018 73.669 220.039 73.6689 220.059V220.846H76.0002V220.059C76.0002 220.039 76.0042 220.018 76.012 220C76.0198 219.981 76.0313 219.963 76.0457 219.949C76.0602 219.935 76.0773 219.923 76.0962 219.915C76.1151 219.907 76.1354 219.903 76.1558 219.904H105.387C105.407 219.903 105.428 219.907 105.447 219.915C105.465 219.923 105.483 219.935 105.497 219.949C105.512 219.963 105.523 219.981 105.531 220C105.539 220.018 105.543 220.039 105.543 220.059V220.846H107.877V220.059C107.877 220.039 107.881 220.018 107.888 220C107.896 219.981 107.908 219.963 107.922 219.949C107.937 219.935 107.954 219.923 107.973 219.915C107.992 219.907 108.012 219.903 108.032 219.904H111.764C111.805 219.904 111.844 219.92 111.873 219.95C111.903 219.979 111.919 220.018 111.919 220.059V220.846H114.251V220.059C114.251 220.039 114.255 220.018 114.263 220C114.27 219.981 114.282 219.963 114.296 219.949C114.311 219.935 114.328 219.923 114.347 219.915C114.366 219.907 114.386 219.903 114.406 219.904H118.138C118.158 219.903 118.179 219.907 118.198 219.915C118.217 219.923 118.234 219.935 118.248 219.949C118.263 219.963 118.274 219.981 118.282 220C118.29 220.018 118.294 220.039 118.294 220.059V220.846H120.625V220.059C120.625 220.039 120.629 220.018 120.637 220C120.644 219.981 120.656 219.963 120.67 219.949C120.685 219.935 120.702 219.923 120.721 219.915C120.74 219.907 120.76 219.903 120.781 219.904H124.512C124.533 219.903 124.553 219.907 124.572 219.915C124.591 219.923 124.608 219.935 124.622 219.949C124.637 219.963 124.648 219.981 124.656 220C124.664 220.018 124.668 220.039 124.668 220.059V220.846H127.002V220.059C127.002 220.039 127.006 220.018 127.014 220C127.021 219.981 127.033 219.963 127.047 219.949C127.062 219.935 127.079 219.923 127.098 219.915C127.117 219.907 127.137 219.903 127.157 219.904H130.889C130.93 219.904 130.969 219.921 130.998 219.95C131.026 219.979 131.042 220.018 131.042 220.059V220.846H133.376V220.059C133.376 220.039 133.38 220.018 133.388 220C133.396 219.981 133.407 219.963 133.422 219.949C133.436 219.935 133.453 219.923 133.472 219.915C133.491 219.907 133.511 219.903 133.532 219.904H137.263C137.284 219.903 137.304 219.907 137.323 219.915C137.342 219.923 137.359 219.935 137.373 219.949C137.388 219.963 137.399 219.981 137.407 220C137.415 220.018 137.419 220.039 137.419 220.059V220.846H139.75V220.059C139.75 220.039 139.754 220.018 139.762 220C139.77 219.981 139.781 219.963 139.796 219.949C139.81 219.935 139.827 219.923 139.846 219.915C139.865 219.907 139.885 219.903 139.906 219.904H143.638C143.658 219.903 143.678 219.907 143.697 219.915C143.716 219.923 143.733 219.935 143.748 219.949C143.762 219.963 143.774 219.981 143.781 220C143.789 220.018 143.793 220.039 143.793 220.059V220.846H154.677C155.167 220.846 155.652 220.942 156.105 221.13C156.558 221.317 156.969 221.592 157.316 221.939C157.663 222.286 157.937 222.697 158.125 223.15C158.312 223.603 158.409 224.089 158.409 224.579V224.579Z" fill="#3F3D56"/>
<path d="M148.417 153.516H102.169V152.562H81.1984V153.516H34.7596C33.9299 153.516 33.1342 153.846 32.5475 154.433C31.9608 155.02 31.6312 155.816 31.6312 156.646V220.002C31.6312 220.833 31.9608 221.629 32.5475 222.216C33.1342 222.802 33.9299 223.132 34.7596 223.132H148.417C149.247 223.132 150.043 222.802 150.629 222.216C151.216 221.629 151.546 220.833 151.546 220.002V156.646C151.546 155.816 151.216 155.02 150.629 154.433C150.043 153.846 149.247 153.516 148.417 153.516V153.516Z" fill="#3F3D56"/>
<path d="M91.6795 182.585C95.5159 182.585 98.626 179.474 98.626 175.635C98.626 171.797 95.5159 168.686 91.6795 168.686C87.843 168.686 84.7329 171.797 84.7329 175.635C84.7329 179.474 87.843 182.585 91.6795 182.585Z" stroke="#D0CDE1" stroke-width="2" stroke-miterlimit="10"/>
<path d="M89.4566 185.087C93.2931 185.087 96.4032 181.976 96.4032 178.137C96.4032 174.299 93.2931 171.188 89.4566 171.188C85.6202 171.188 82.5101 174.299 82.5101 178.137C82.5101 181.976 85.6202 185.087 89.4566 185.087Z" fill="#D0CDE1"/>
<path d="M416 227.925H5.12317V228.791H416V227.925Z" fill="#3F3D56"/>
</g>
<defs>
<clipPath id="clip0">
<rect width="416" height="189" fill="white" transform="translate(0 41)"/>
</clipPath>
</defs>
</svg>
